<?xml version="1.0" encoding="UTF-8" standalone="no"?>
<!-- Created with Inkscape (http://www.inkscape.org/) -->
<svg
   xmlns:dc="http://purl.org/dc/elements/1.1/"
   xmlns:cc="http://creativecommons.org/ns#"
   xmlns:rdf="http://www.w3.org/1999/02/22-rdf-syntax-ns#"
   xmlns:svg="http://www.w3.org/2000/svg"
   xmlns="http://www.w3.org/2000/svg"
   xmlns:sodipodi="http://sodipodi.sourceforge.net/DTD/sodipodi-0.dtd"
   xmlns:inkscape="http://www.inkscape.org/namespaces/inkscape"
   width="69.368057mm"
   height="93.032623mm"
   viewBox="0 0 245.79233 329.64315"
   id="svg2"
   version="1.1"
   inkscape:version="0.91 r13725"
   sodipodi:docname="^ley гламурный.svg"
   style='transform: scale(1);'>
  <defs
     id="defs4" />
  <sodipodi:namedview
     id="base"
     pagecolor="#ffffff"
     bordercolor="#666666"
     borderopacity="1.0"
     inkscape:pageopacity="0.0"
     inkscape:pageshadow="2"
     inkscape:zoom="0.35"
     inkscape:cx="-730.67526"
     inkscape:cy="170.53586"
     inkscape:document-units="px"
     inkscape:current-layer="layer1"
     showgrid="false"
     inkscape:window-width="1920"
     inkscape:window-height="1019"
     inkscape:window-x="1272"
     inkscape:window-y="-8"
     inkscape:window-maximized="1"
     fit-margin-top="0"
     fit-margin-left="0"
     fit-margin-right="0"
     fit-margin-bottom="0" />
  <metadata
     id="metadata7">
    <rdf:RDF>
      <cc:Work
         rdf:about="">
        <dc:format>image/svg+xml</dc:format>
        <dc:type
           rdf:resource="http://purl.org/dc/dcmitype/StillImage" />
        <dc:title></dc:title>
      </cc:Work>
    </rdf:RDF>
  </metadata>
  <g
     inkscape:label="Layer 1"
     inkscape:groupmode="layer"
     id="layer1"
     transform="translate(-234.24669,-376.11206)">
    <g
       id="g6052"
       transform="translate(-247.84107,-52.97944)"
       inkscape:export-xdpi="90"
       inkscape:export-ydpi="90">
      <path
         inkscape:export-ydpi="90"
         inkscape:export-xdpi="90"
         style="opacity:1;fill:#fff;fill-opacity:1;fill-rule:nonzero;stroke:none;stroke-width:0.5;stroke-linecap:round;stroke-linejoin:round;stroke-miterlimit:4;stroke-dasharray:none;stroke-dashoffset:0;stroke-opacity:1"
         d="m 495.32094,644.76565 c -3.20174,0.70843 -5.11809,1.10978 -7.57614,7.07107 -2.30097,5.58033 -2.9778,10.70155 -2.52538,25.75889 1.60869,32.93792 24.52859,50.6941 47.47717,63.13453 33.73938,20.93704 39.78232,19.81244 77.51126,15.33612 79.89746,8.84046 78.13231,-20.27494 94.21467,-41.09501 12.19932,6.2949 23.81801,-13.84377 23.44901,-42.26136 -0.13113,-10.09886 -6.0552,-27.67118 -10.88338,-33.62263 -11.80816,-14.55531 -20.75962,-21.65895 -32.2636,-29.17187 -5.02742,-3.28326 -9.83359,-3.06485 -13.63706,-4.04061 z"
         id="path4340"
         inkscape:connector-curvature="0"
         sodipodi:nodetypes="ssccccssscs" />
      <path
         inkscape:export-ydpi="90"
         inkscape:export-xdpi="90"
         inkscape:connector-curvature="0"
         style="opacity:0.33300003;fill:#3f403b;fill-opacity:1;fill-rule:nonzero;stroke:none;stroke-width:0.5;stroke-linecap:round;stroke-linejoin:round;stroke-miterlimit:4;stroke-dasharray:none;stroke-dashoffset:0;stroke-opacity:1"
         d="m 487.34515,652.89453 c -1.96468,5.21177 -2.54879,10.59666 -2.125,24.70117 1.60869,32.93792 24.52798,50.69434 47.47656,63.13477 33.73938,20.93704 39.78278,19.81226 77.51172,15.33594 79.36632,8.78169 78.16019,-19.88659 93.9043,-40.67579 -4.38387,-2.90841 -7.07832,0.0837 -19.38867,4.63086 -14.4962,5.35457 -28.19453,0.6396 -38.38477,-2.01953 -28.74363,-7.50061 -53.63637,-0.13031 -83.84375,-3.03125 -27.61331,-2.65182 -58.68573,-12.71908 -63.63867,-43.43554 -2.29398,-14.22649 -2.03599,-12.92483 -11.51172,-18.64063 z"
         id="path4422" />
      <path
         inkscape:export-ydpi="90"
         inkscape:export-xdpi="90"
         style="opacity:1;fill:#161616;fill-opacity:1;fill-rule:nonzero;stroke:none;stroke-width:0.5;stroke-linecap:round;stroke-linejoin:round;stroke-miterlimit:4;stroke-dasharray:none;stroke-dashoffset:0;stroke-opacity:1"
         d="m 508.57143,674.14792 c 7.5,-1.42857 15.04271,-2.64875 22.5,-4.28572 16.95164,-3.72109 33.82465,-7.79263 50.71429,-11.78571 20.37249,-4.8165 39.41977,-9.50235 59.42993,-15.65301 9.16372,-2.81672 17.72548,-7.42557 26.07143,-12.14285 2.71248,-1.53314 6.4808,-2.98542 8.42721,-5.41843 1.9004,-2.3755 3.09524,-5.23809 4.64286,-7.85714 -1.07143,2.85714 -1.48049,6.06042 -3.21429,8.57143 -1.82005,2.63594 -5.987,3.85779 -8.78436,5.41842 -8.60446,4.80038 -17.28669,9.88292 -26.78571,12.5 -37.33476,10.28611 -73.75271,18.75514 -111.57279,27.08158 -7.07202,1.55697 -14.28571,2.38095 -21.42857,3.57143 z"
         id="path4342"
         inkscape:connector-curvature="0"
         sodipodi:nodetypes="cssssscssssc" />
      <path
         inkscape:export-ydpi="90"
         inkscape:export-xdpi="90"
         inkscape:connector-curvature="0"
         style="opacity:1;fill:#3f403b;fill-opacity:1;fill-rule:nonzero;stroke:none;stroke-width:0.5;stroke-linecap:round;stroke-linejoin:round;stroke-miterlimit:4;stroke-dasharray:none;stroke-dashoffset:0;stroke-opacity:1"
         d="m 667.76507,606.60938 -172.44336,38.15624 c -2.70662,0.59888 -4.49746,1.01633 -6.4707,4.72071 1.23709,2.34632 3.18279,4.80529 5.71289,5.1289 12.35815,1.58069 24.95871,0.77488 37.375,-0.2539 17.10819,-1.41753 34.38648,-2.79994 51.01367,-7.07031 14.41364,-3.70187 27.51028,-11.36823 41.41602,-16.66797 10.17518,-3.87795 20.68991,-6.83629 30.80859,-10.85938 3.8837,-1.54412 8.01354,-3.00304 11.11133,-5.80859 1.65785,-1.50145 3.53224,-4.46365 2.27344,-6.3125 -0.2393,-0.35146 -0.5121,-0.69498 -0.79688,-1.0332 z"
         id="path4344" />
      <path
         inkscape:export-ydpi="90"
         inkscape:export-xdpi="90"
         style="opacity:1;fill:#fff;fill-opacity:1;fill-rule:nonzero;stroke:none;stroke-width:0.5;stroke-linecap:round;stroke-linejoin:round;stroke-miterlimit:4;stroke-dasharray:none;stroke-dashoffset:0;stroke-opacity:1"
         d="m 493.0481,629.36083 c -2.68765,0.57479 -3.43259,4.59826 -3.78807,7.3236 -0.44038,3.37625 0.0514,7.02743 1.51523,10.10153 1.20306,2.52643 3.28527,5.45335 6.06091,5.80837 12.35815,1.58069 24.95936,0.77625 37.37565,-0.25253 17.10819,-1.41753 34.38551,-2.8007 51.0127,-7.07107 14.41364,-3.70187 27.51051,-11.36778 41.41625,-16.66752 10.17518,-3.87795 20.69098,-6.83605 30.80966,-10.85914 3.8837,-1.54412 8.01389,-3.00283 11.11168,-5.80838 1.65785,-1.50145 3.53164,-4.4646 2.27284,-6.31345 -2.20436,-3.23765 -6.47169,-6.07423 -10.35407,-5.55584 -56.16031,7.49868 -112.02696,17.4451 -167.43278,29.29443 z"
         id="path4346"
         inkscape:connector-curvature="0"
         sodipodi:nodetypes="ssssssssssss" />
      <path
         inkscape:export-ydpi="90"
         inkscape:export-xdpi="90"
         inkscape:connector-curvature="0"
         style="opacity:1;fill:#3f403b;fill-opacity:1;fill-rule:nonzero;stroke:none;stroke-width:0.5;stroke-linecap:round;stroke-linejoin:round;stroke-miterlimit:4;stroke-dasharray:none;stroke-dashoffset:0;stroke-opacity:1"
         d="m 658.22601,600.37305 c -55.40091,7.46286 -110.51344,17.29753 -165.17774,28.98828 -2.06523,0.44168 -2.9793,2.91675 -3.45507,5.27734 1.52564,1.40476 3.31069,2.42512 5.05664,2.89453 12.03156,3.23481 24.91806,0.47093 37.375,0.25391 11.71005,-0.20401 23.70181,1.16169 35.10351,-1.51563 9.82311,-2.30664 18.36656,-8.39134 27.27344,-13.13281 8.02855,-4.27391 14.82086,-11.12577 23.48633,-13.88867 9.18543,-2.92869 19.21787,-1.61904 28.78906,-2.77734 3.65516,-0.44234 7.67142,-0.17955 10.85938,-2.02149 1.18225,-0.68308 1.17481,-2.67916 0.68945,-4.07812 z"
         id="path4348" />
      <path
         inkscape:export-ydpi="90"
         inkscape:export-xdpi="90"
         style="opacity:1;fill:#fff;fill-opacity:1;fill-rule:nonzero;stroke:none;stroke-width:0.5;stroke-linecap:round;stroke-linejoin:round;stroke-miterlimit:4;stroke-dasharray:none;stroke-dashoffset:0;stroke-opacity:1"
         d="m 496.07856,635.92682 c 12.03156,3.23481 24.9187,0.46956 37.37564,0.25254 11.71005,-0.20401 23.7011,1.16209 35.1028,-1.51523 9.82311,-2.30664 18.36724,-8.39052 27.27412,-13.13199 8.02855,-4.27391 14.82058,-11.12669 23.48605,-13.88959 9.18543,-2.92869 19.21816,-1.61962 28.78935,-2.77792 3.65516,-0.44234 7.67118,-0.17837 10.85914,-2.02031 1.32006,-0.7627 1.16174,-3.1698 0.50507,-4.54568 -1.25865,-2.63717 -4.03332,-4.24478 -5.80837,-6.566 -1.51776,-1.98477 -3.5153,-3.87071 -4.04062,-6.31345 -1.20558,-5.60592 -1.96837,-11.51913 -1.01015,-17.17259 0.78018,-4.60308 9.89079,-5.91288 7.82869,-10.10153 -4.42185,-8.98187 -16.71276,-15.85441 -23.99113,-22.72843 -4.84675,-4.57749 -10.40502,-8.62141 -14.14213,-14.14214 -3.80443,-5.62018 -4.07818,-17.08569 -10.6066,-18.94036 -25.99743,-7.38563 -50.25063,-5.47612 -77.27668,-5.55584 -2.64327,-0.008 -4.56107,3.22535 -5.80837,5.55584 -1.97696,3.69379 -2.90054,7.88163 -4.79823,11.61676 -3.41467,6.72094 -7.17593,13.26828 -11.11168,19.69797 -4.57103,7.46752 -9.82913,14.49994 -14.39467,21.97082 -3.77321,6.17435 -5.82807,10.84524 -8.83883,17.42513 -3.13312,6.84729 -3.81334,17.57652 -3.15673,25.75889 0.21138,7.99793 4.70034,16.24069 5.68211,20.96067 -3.58852,7.41776 2.45281,14.64918 8.08122,16.16244 z"
         id="path4350"
         inkscape:connector-curvature="0"
         sodipodi:nodetypes="ssssssssssscsssssssssccs" />
      <path
         inkscape:export-ydpi="90"
         inkscape:export-xdpi="90"
         style="opacity:1;fill:#161616;fill-opacity:1;fill-rule:nonzero;stroke:none;stroke-width:0.5;stroke-linecap:round;stroke-linejoin:round;stroke-miterlimit:4;stroke-dasharray:none;stroke-dashoffset:0;stroke-opacity:1"
         d="m 491.78541,625.06768 c 4.62987,1.26269 9.13423,3.1427 13.8896,3.78807 7.0981,0.96331 14.31543,1.43917 21.46574,1.01015 9.75633,-0.58538 19.73736,-1.0482 29.04188,-4.04061 7.75302,-2.49343 14.14214,-8.08122 21.21321,-12.12183 -6.39763,3.45136 -12.22828,8.27186 -19.1929,10.35407 -9.6152,2.87465 -19.79909,3.45199 -29.7995,4.29314 -8.05322,0.67737 -16.19429,0.97421 -24.24366,0.25254 -4.27271,-0.38307 -8.24958,-2.35702 -12.37437,-3.53553 z"
         id="path4352"
         inkscape:connector-curvature="0"
         sodipodi:nodetypes="cssscsssc" />
      <path
         inkscape:export-ydpi="90"
         inkscape:export-xdpi="90"
         style="opacity:1;fill:#161616;fill-opacity:1;fill-rule:nonzero;stroke:none;stroke-width:0.5;stroke-linecap:round;stroke-linejoin:round;stroke-miterlimit:4;stroke-dasharray:none;stroke-dashoffset:0;stroke-opacity:1"
         d="m 496.58363,618.75422 c 7.66032,2.4412 14.99406,6.40204 22.98097,7.32361 9.793,1.12996 20.02105,1.27436 29.54697,-1.26269 7.72895,-2.05846 14.03835,-7.7073 20.70812,-12.12183 5.05464,-3.34551 9.13659,-8.09601 14.39468,-11.11168 6.28032,-3.60195 13.30034,-5.7242 19.95051,-8.5863 -6.14509,2.52538 -12.29019,5.05077 -18.43528,7.57615 3.53553,-3.283 6.99734,-6.64722 10.6066,-9.84899 1.61288,-1.43078 3.36717,-2.69374 5.05076,-4.04061 -2.27284,1.34687 -4.76439,2.37917 -6.81853,4.04061 -3.70359,2.99555 -6.64842,6.85597 -10.35406,9.84899 -5.07003,4.09503 -10.4317,7.83381 -15.90991,11.36421 -5.89807,3.80098 -11.37973,8.88795 -18.18274,10.60661 -9.64304,2.43614 -19.8783,2.2172 -29.7995,1.51523 -8.0877,-0.57224 -15.82573,-3.53554 -23.73859,-5.30331 z"
         id="path4354"
         inkscape:connector-curvature="0"
         sodipodi:nodetypes="cssssccscsssssc" />
      <path
         inkscape:export-ydpi="90"
         inkscape:export-xdpi="90"
         style="opacity:1;fill:#3f403b;fill-opacity:1;fill-rule:nonzero;stroke:none;stroke-width:0.5;stroke-linecap:round;stroke-linejoin:round;stroke-miterlimit:4;stroke-dasharray:none;stroke-dashoffset:0;stroke-opacity:1"
         d="m 630.17858,582.54078 c 9.08754,-0.63122 16.92963,3.64115 24.46428,6.78571 -2.41937,-2.00045 -5.25192,-4.96385 -7.0421,-8.12261 -5.51061,-9.7235 -12.05786,-12.71498 -16.17218,-22.4131 2.9638,10.28147 9.30215,14.73674 13.39285,20.89285 -6.8513,-5.71202 -13.18977,-5.87939 -21.07143,-6.07143 8.19442,0.58865 15.21194,2.95089 21.42858,7.5 1.76665,1.3029 2.85714,3.33333 4.28571,5 -6.15255,-3.57374 -12.52138,-3.72651 -19.28571,-3.57142 z"
         id="path4356"
         inkscape:connector-curvature="0"
         sodipodi:nodetypes="ccscccccc" />
      <path
         inkscape:export-ydpi="90"
         inkscape:export-xdpi="90"
         style="opacity:1;fill:#161616;fill-opacity:1;fill-rule:nonzero;stroke:none;stroke-width:0.5;stroke-linecap:round;stroke-linejoin:round;stroke-miterlimit:4;stroke-dasharray:none;stroke-dashoffset:0;stroke-opacity:1"
         d="m 562.74863,614.71361 c 2.17606,-3.63082 3.81461,-7.11748 5.3033,-10.73287 4.81916,-3.94682 8.96918,-8.97799 12.75317,-13.25825 -4.01151,4.65962 -7.967,8.53031 -12.2481,12.2481 0.21045,-1.51523 0.4209,-3.03046 0.63135,-4.54569 6.09139,-8.20205 11.04739,-15.99752 18.56155,-21.59201 4.17353,-3.1073 8.06857,-4.11213 11.61676,-5.6821 -4.29289,1.35336 -7.98456,3.15915 -11.61676,5.17703 -0.016,-1.69152 0.0734,-3.51624 0.12627,-5.05077 -0.29463,1.34687 -0.72318,3.85445 -1.01781,5.20132 -7.09355,6.65276 -12.59146,12.23385 -17.52842,20.2884 1.57829,-5.8478 1.87889,-11.98094 2.38379,-17.66103 1.3263,-5.05752 2.76261,-9.86932 4.16688,-14.52095 -1.5701,4.37984 -2.86774,7.60611 -4.00363,11.77104 0.23034,-4.63295 0.182,-7.77996 -0.28952,-12.02357 -1.13903,15.50766 -2.74989,33.52806 -8.46003,46.34074 1.3233,-12.93524 -11.51182,-19.78748 -21.84455,-21.71828 9.02438,3.05115 17.58715,7.98393 20.32932,16.66752 -6.86546,-6.9614 -17.98294,-9.18233 -26.13769,-7.57614 10.28868,0.89674 24.68204,2.24668 27.27412,16.66751 z"
         id="path4358"
         inkscape:connector-curvature="0"
         sodipodi:nodetypes="cccccscccccccccccccc" />
      <path
         inkscape:export-ydpi="90"
         inkscape:export-xdpi="90"
         style="opacity:1;fill:#161616;fill-opacity:1;fill-rule:nonzero;stroke:none;stroke-width:0.5;stroke-linecap:round;stroke-linejoin:round;stroke-miterlimit:4;stroke-dasharray:none;stroke-dashoffset:0;stroke-opacity:1"
         d="m 527.64582,584.53531 c -4.76483,4.1102 -5.3832,8.63574 -6.06091,14.14213 -2.19412,-8.28686 -1.49483,-11.51522 3.15673,-18.05647 -9.05436,11.12369 -3.76707,23.94967 0.63134,35.1028 -8.95351,-6.50402 -13.35873,-17.20712 -16.54125,-26.51651 2.43512,11.35037 7.96389,19.71877 15.02602,27.40039 -10.98986,-7.46323 -20.39313,-17.38706 -28.03173,-26.89531 9.47648,13.15221 19.96856,24.08818 32.70369,31.06219 -5.16461,-14.89312 -9.67178,-23.75671 -0.88389,-36.23922 z"
         id="path4360"
         inkscape:connector-curvature="0"
         sodipodi:nodetypes="ccccccccc" />
      <path
         inkscape:export-ydpi="90"
         inkscape:export-xdpi="90"
         inkscape:connector-curvature="0"
         style="opacity:1;fill:#3f403b;fill-opacity:1;fill-rule:nonzero;stroke:none;stroke-width:0.5;stroke-linecap:round;stroke-linejoin:round;stroke-miterlimit:4;stroke-dasharray:none;stroke-dashoffset:0;stroke-opacity:1"
         d="m 559.89593,496.62305 c -9.59311,-0.0655 -19.33789,0.18419 -29.47266,0.15429 -0.8686,-0.003 -1.65135,0.36567 -2.36523,0.91602 -0.0867,6.99227 3.05128,14.08293 7.68164,17.9082 18.30725,15.12413 55.12026,22.81311 72.22656,5.05078 4.0339,-4.18859 5.80328,-12.65658 1.75977,-17.30859 -0.60277,-0.44758 -1.27048,-0.7953 -2.02539,-1.00977 -16.2484,-4.61601 -31.81617,-5.60177 -47.80469,-5.71093 z"
         id="path4362" />
      <path
         inkscape:export-ydpi="90"
         inkscape:export-xdpi="90"
         style="opacity:0.55400002;fill:#3f403b;fill-opacity:1;fill-rule:nonzero;stroke:none;stroke-width:0.5;stroke-linecap:round;stroke-linejoin:round;stroke-miterlimit:4;stroke-dasharray:none;stroke-dashoffset:0;stroke-opacity:1"
         d="m 511.23085,607.39001 c 6.14121,5.72336 11.77643,9.81555 19.69797,11.86929 l 18.18275,41.66879 111.62185,2.02031 24.74874,0.25254 c -9.05879,14.05909 -24.29126,7.75304 -37.37564,3.78807 -12.24374,0.68209 -24.43663,1.91599 -36.61803,3.28299 -21.26464,2.38632 -42.40853,-0.14526 -63.63961,-1.26269 -4.97538,0.53588 -9.38616,0.62009 -11.11168,-3.78807 -2.37565,-6.06904 -4.98465,-10.12121 -8.9651,-12.6269 -1.06708,-7.78145 -4.93316,-14.6732 -9.47018,-15.78364 -0.18969,-3.31274 -2.13959,-5.63573 -4.29315,-7.95495 1.22262,-3.37921 1.10918,-3.70885 -1.51523,-5.80838 -8.82005,-2.37103 -11.14027,-3.34925 -15.65737,-4.79822 7.791,0.72976 15.31222,2.03883 22.98097,0.50507 -3.49986,-3.36914 -6.05672,-7.27797 -8.58629,-11.36421 z"
         id="path4364"
         inkscape:connector-curvature="0"
         sodipodi:nodetypes="ccccccscsccccccc" />
      <path
         inkscape:export-ydpi="90"
         inkscape:export-xdpi="90"
         inkscape:connector-curvature="0"
         style="opacity:1;fill:#3f403b;fill-opacity:1;fill-rule:nonzero;stroke:none;stroke-width:0.5;stroke-linecap:round;stroke-linejoin:round;stroke-miterlimit:4;stroke-dasharray:none;stroke-dashoffset:0;stroke-opacity:1"
         d="m 485.72406,659.14258 c -0.63112,4.11043 -0.77252,9.51316 -0.50391,18.45312 1.60869,32.93792 24.52798,50.69434 47.47656,63.13477 33.73938,20.93704 39.78278,19.81226 77.51172,15.33594 79.89746,8.84046 78.13248,-20.27564 94.21484,-41.09571 0.0477,0.0246 0.0949,0.0407 0.14258,0.0645 l -0.14258,-0.56836 c -30.52606,49.05272 -47.42374,40.81579 -97.48046,36.86914 -34.47787,2.90444 -49.06613,0.3389 -73.23633,-19.69727 -31.63631,-15.33882 -46.71009,-38.88667 -47.98242,-72.49609 z"
         id="path4366" />
      <path
         inkscape:export-ydpi="90"
         inkscape:export-xdpi="90"
         style="opacity:1;fill:#fff;fill-opacity:1;fill-rule:nonzero;stroke:none;stroke-width:0.5;stroke-linecap:round;stroke-linejoin:round;stroke-miterlimit:4;stroke-dasharray:none;stroke-dashoffset:0;stroke-opacity:1"
         d="m 522.32143,602.89792 c 2.7381,7.85714 5.63474,15.66082 8.21429,23.57143 1.88597,5.78365 2.97689,11.82901 5.17857,17.5 1.74389,4.49184 4.38793,8.58012 6.60714,12.85714 1.05465,2.0326 1.29246,4.8263 3.21429,6.07143 2.71466,1.75879 6.33363,1.32938 9.46428,2.14286 4.43153,1.1515 8.65064,3.3791 13.21429,3.75 12.40016,1.00779 24.88534,0.70844 37.32143,0.35714 8.65701,-0.24455 17.24927,-1.60263 25.89286,-2.14286 8.5028,-0.53143 17.02158,-0.77194 25.53571,-1.07143 3.3318,-0.1172 6.71712,0.40225 10,-0.17857 4.52503,-0.80058 10.51146,-0.21218 13.21429,-3.92857 3.5005,-4.81318 4.25257,-11.99098 2.5,-17.67857 -1.73681,-5.63644 -6.85235,-10.09394 -11.96429,-13.03572 -2.10514,-1.21145 -4.71086,1.23659 -6.96428,2.14286 -3.2362,1.30152 -6.30273,2.99068 -9.46429,4.46429 -3.86231,1.80023 -7.6529,3.76896 -11.60714,5.35714 -3.31871,1.33293 -6.62653,2.97626 -10.17857,3.39286 -6.20746,0.72804 -12.50088,0.10474 -18.75001,0 -4.40776,-0.0739 -8.8805,0.27182 -13.21428,-0.53572 -5.33048,-0.99326 -10.74723,-3.08079 -16.07143,-4.10714 -4.62661,-0.89188 -8.91592,-0.88105 -13.57143,-1.60714 -1.9003,-0.29638 -3.96094,-0.82014 -5.35714,-2.14286 -1.09317,-1.03564 -1.28747,-2.78649 -1.42857,-4.28571 -0.34023,-3.61498 0.45365,-7.29036 0,-10.89286 -0.56466,-4.48409 -2.02381,-8.80953 -3.03572,-13.21429"
         id="path4368"
         inkscape:connector-curvature="0"
         sodipodi:nodetypes="cssssssssssssssssssssssssc" />
      <path
         inkscape:export-ydpi="90"
         inkscape:export-xdpi="90"
         style="opacity:1;fill:#fff;fill-opacity:1;fill-rule:nonzero;stroke:none;stroke-width:0.5;stroke-linecap:round;stroke-linejoin:round;stroke-miterlimit:4;stroke-dasharray:none;stroke-dashoffset:0;stroke-opacity:1"
         d="m 654.82143,559.14792 c 1.30953,0.83333 2.86583,1.36869 3.92858,2.5 14.1596,15.91545 24.3555,26.75282 32.32142,44.64286 1.55651,3.2998 4.71642,5.71962 6.07143,9.10714 3.22103,8.16381 -0.90246,16.01839 -2.6956,23.30682 0.38133,6.33673 -1.97093,7.20233 -3.91434,11.11167 -1.07956,2.34804 -1.13087,5.07352 -2.14657,7.44988 -1.22915,2.87574 -2.02579,6.35525 -4.54569,8.20749 -2.83783,2.08592 -6.7354,2.19612 -10.22779,2.65165 -3.33889,0.43551 -6.81214,0.71956 -10.10153,0 -1.08553,-0.23746 -2.07721,-1.54191 -2.0203,-2.65165 0.0549,-1.07002 1.40657,-1.44575 2.46224,-1.26269 3.9275,0.68106 8.39304,1.30309 12.62691,0.82075 2.60289,-0.29653 6.49882,-1.56225 7.1342,-4.10375 -0.77843,0.14637 -4.12309,1.40359 -6.62912,1.6415 -4.28132,0.40646 -9.07627,0.94095 -13.32139,0.25254 -0.6232,-0.10106 -1.23489,-0.89161 -1.13642,-1.51523 0.19704,-1.24793 0.84613,-2.57727 1.89404,-3.283 1.21186,-0.81615 2.88438,-0.49647 4.29314,-0.88388 3.64616,-1.0027 7.36133,-1.84592 10.85914,-3.283 1.97673,-0.81214 4.08313,-1.7497 5.42957,-3.40926 0.68947,-0.84982 0.29017,-2.22784 0,-3.283 -0.1987,-0.72256 -0.65191,-1.90314 -1.38896,-1.76776 -1.8388,0.33774 -3.12972,2.06077 -4.79822,2.90419 -2.17023,1.09704 -4.36247,2.20742 -6.69226,2.90418 -2.20759,0.66021 -4.51507,1.07811 -6.81853,1.13643 -1.09236,0.0276 -2.28256,-0.22826 -3.15673,-0.88389 -0.76857,-0.57643 -1.38896,-1.56467 -1.38896,-2.52538 0,-0.9978 0.56497,-2.08893 1.38896,-2.65165 1.07074,-0.73124 2.54806,-0.50499 3.78807,-0.88388 1.79519,-0.54853 3.56793,-1.17842 5.3033,-1.89404 2.35082,-0.96941 4.90391,-1.63986 6.9448,-3.15673 1.19958,-0.89158 1.94469,-2.3642 2.39912,-3.78807 0.22349,-0.70027 -0.33672,-1.43105 -0.50508,-2.14657 -1.89404,0.21045 -4.13654,-0.4835 -5.68211,0.63134 -1.43899,1.03796 -0.64181,3.80745 -2.0203,4.9245 -1.39813,1.13297 -3.5133,1.19532 -5.3033,1.01015 -0.89009,-0.0921 -1.83986,-0.89131 -2.02031,-1.76777 1.25048,-2.03391 1.90747,-4.91936 2.90419,-6.69226 0.64553,-1.115 1.26045,-2.42764 2.39911,-3.03046 1.87658,-0.99348 4.06727,-1.63567 6.18719,-1.51522 1.78778,0.10158 3.28299,1.43105 4.92449,2.14657 -4.74199,-5.08013 -4.55915,-10.45027 -6.92496,-14.18481 -1.39554,-2.25824 -4.12652,-3.37541 -5.89285,-5.35714 -3.12983,-3.51152 -7.45809,-8.79566 -10.35714,-12.5 -3.52959,-4.51003 -8.72024,-8.69047 -10.53572,-17.67857 -2.26435,-15.27221 2.82834,-17.40686 6.96428,-21.25 z"
         id="path4370"
         inkscape:connector-curvature="0"
         sodipodi:nodetypes="ccccccssssssscssssssssssssssssssscsssccssccsscc" />
      <path
         inkscape:export-ydpi="90"
         inkscape:export-xdpi="90"
         style="opacity:1;fill:#3f403b;fill-opacity:1;fill-rule:nonzero;stroke:none;stroke-width:0.5;stroke-linecap:round;stroke-linejoin:round;stroke-miterlimit:4;stroke-dasharray:none;stroke-dashoffset:0;stroke-opacity:1"
         d="m 653.60247,564.99017 c -11.14261,17.35561 -5.15893,21.88629 4.98373,31.94435 5.41699,3.89823 7.03342,10.13013 10.16325,13.64165 1.76633,1.98173 4.49703,3.09918 5.89257,5.35742 2.31599,3.6559 2.20222,8.87902 6.64454,13.86329 0.69844,0.23728 1.03515,0.24414 1.03515,0.24414 6.06937,-14.73992 1.64644,-12.68121 -3.99735,-21.67645 -5.6145,-8.67621 2.1758,-3.87012 6.85477,-7.7884 -18.92286,0 -38.25035,-20.68429 -31.57666,-35.586 z"
         id="path4372"
         inkscape:connector-curvature="0"
         sodipodi:nodetypes="ccscccccc" />
      <path
         inkscape:export-ydpi="90"
         inkscape:export-xdpi="90"
         style="opacity:1;fill:#fff;fill-opacity:1;fill-rule:nonzero;stroke:none;stroke-width:0.5;stroke-linecap:round;stroke-linejoin:round;stroke-miterlimit:4;stroke-dasharray:none;stroke-dashoffset:0;stroke-opacity:1"
         d="m 672.35018,651.20537 c 2.73583,-1.13642 6.16812,-2.3046 8.20749,-3.40926 2.03937,-1.10466 2.54901,-2.3674 3.91434,-3.15673 1.36533,-0.78933 3.00202,-1.49193 4.16688,-1.51523 1.16486,-0.0233 1.73954,0.57489 2.14657,1.38896 0.40703,0.81407 0.52513,1.87677 0,2.90419 -0.52513,1.02742 -1.32591,1.81815 -2.90419,2.77792 -1.57828,0.95977 -4.27064,2.01971 -6.43972,2.90419 -2.16908,0.88448 -4.37733,1.59941 -6.56599,2.39911 z"
         id="path4374"
         inkscape:connector-curvature="0"
         sodipodi:nodetypes="czzzzzzzcc" />
      <path
         inkscape:export-ydpi="90"
         inkscape:export-xdpi="90"
         style="opacity:1;fill:#fff;fill-opacity:1;fill-rule:nonzero;stroke:none;stroke-width:0.5;stroke-linecap:round;stroke-linejoin:round;stroke-miterlimit:4;stroke-dasharray:none;stroke-dashoffset:0;stroke-opacity:1"
         d="m 675.1281,665.15811 c 2.77792,-0.35776 5.62815,-0.34906 8.33376,-1.07329 1.52834,-0.4091 2.95436,-1.25647 4.16687,-2.27284 1.6903,-1.41687 3.18097,-3.09942 4.41942,-4.9245 0.40798,-0.60123 0.84938,-1.59296 0.37881,-2.14657 -0.55128,-0.64857 -1.73293,-0.68958 -2.52538,-0.37881 -1.51254,0.59315 -2.7493,1.77181 -3.91434,2.90419 -1.10783,1.07677 -1.63849,2.69199 -2.84106,3.6618 -0.83417,0.67272 -1.98816,0.82425 -3.03045,1.07329 -1.34612,0.32164 -2.73583,0.42089 -4.10375,0.63134 z"
         id="path4376"
         inkscape:connector-curvature="0"
         sodipodi:nodetypes="csssssssscc" />
      <path
         inkscape:export-ydpi="90"
         inkscape:export-xdpi="90"
         style="opacity:1;fill:#fff;fill-opacity:1;fill-rule:nonzero;stroke:none;stroke-width:0.5;stroke-linecap:round;stroke-linejoin:round;stroke-miterlimit:4;stroke-dasharray:none;stroke-dashoffset:0;stroke-opacity:1"
         d="m 674.24421,635.23234 c 0,0 0.98097,-0.48176 1.4521,-0.75761 1.06283,-0.62232 1.86828,-1.89578 3.09359,-2.02031 0.85535,-0.0869 1.90265,0.24509 2.39911,0.94702 0.66881,0.94562 0.47251,2.36713 0.12627,3.4724 -0.44037,1.40578 -1.52737,2.58362 -2.65165,3.53553 -1.01287,0.85758 -3.53553,1.8309 -3.53553,1.8309 z"
         id="path4378"
         inkscape:connector-curvature="0"
         sodipodi:nodetypes="cssssscc" />
      <path
         inkscape:export-ydpi="90"
         inkscape:export-xdpi="90"
         inkscape:connector-curvature="0"
         style="opacity:1;fill:#3f403b;fill-opacity:1;fill-rule:nonzero;stroke:none;stroke-width:0.5;stroke-linecap:round;stroke-linejoin:round;stroke-miterlimit:4;stroke-dasharray:none;stroke-dashoffset:0;stroke-opacity:1"
         d="m 674.01117,635.59375 c -2.71164,3.23999 -4.86988,4.42939 -8.26368,2.48828 -0.18556,0.39247 -0.37752,0.77525 -0.59375,1.12695 0.18045,0.87646 1.12944,1.67744 2.01953,1.76954 1.79,0.18517 3.90461,0.12125 5.30274,-1.01172 1.18041,-0.95654 0.77523,-3.11796 1.53516,-4.37305 z m -13.11719,13.08398 c -0.008,0.0848 -0.0352,0.17007 -0.0352,0.25391 0,0.96071 0.62206,1.94896 1.39063,2.52539 0.87417,0.65563 2.06389,0.91237 3.15625,0.88477 2.30346,-0.0583 4.61077,-0.47651 6.81836,-1.13672 1.3927,-0.41651 2.73365,-0.98651 4.05273,-1.60742 -5.02518,0.83776 -11.6789,3.18068 -15.38281,-0.91993 z m 2.55859,10.46289 c -0.42714,0.65225 -0.70681,1.42244 -0.82422,2.16602 -0.0985,0.62362 0.51157,1.41457 1.13477,1.51563 4.24512,0.68841 9.04094,0.1545 13.32226,-0.25196 1.85668,-0.17626 4.16398,-0.91085 5.55664,-1.33984 0.30482,-1.23053 0.3031,-1.65358 -1.57031,-1.9043 -5.43981,2.17593 -16.42266,4.72798 -17.61914,-0.18555 z m -1.43945,5.41797 c -0.30003,0.21305 -0.50095,0.51579 -0.52149,0.91602 -0.0569,1.10974 0.934,2.41293 2.01954,2.65039 3.28939,0.71956 6.76267,0.43551 10.10156,0 3.49239,-0.45553 7.39068,-0.56447 10.22851,-2.65039 0.32939,-0.24211 0.62508,-0.51586 0.90039,-0.80859 -8.36993,2.12624 -18.72182,4.63851 -22.72851,-0.10743 z"
         id="path4380" />
      <path
         inkscape:export-ydpi="90"
         inkscape:export-xdpi="90"
         inkscape:connector-curvature="0"
         style="opacity:1;fill:#3f403b;fill-opacity:1;fill-rule:nonzero;stroke:none;stroke-width:0.5;stroke-linecap:round;stroke-linejoin:round;stroke-miterlimit:4;stroke-dasharray:none;stroke-dashoffset:0;stroke-opacity:1"
         d="m 692.14202,654.49609 c -2.8415,6.64896 -10.00169,8.9159 -16.0625,10.56446 2.47454,-0.25592 4.98446,-0.33458 7.38282,-0.97657 1.52834,-0.4091 2.9535,-1.25511 4.16601,-2.27148 1.6903,-1.41687 3.18147,-3.1007 4.41992,-4.92578 0.40798,-0.60123 0.84948,-1.59288 0.37891,-2.14649 -0.0814,-0.0957 -0.17956,-0.17404 -0.28516,-0.24414 z"
         id="path4382" />
      <path
         inkscape:export-ydpi="90"
         inkscape:export-xdpi="90"
         inkscape:connector-curvature="0"
         style="opacity:1;fill:#3f403b;fill-opacity:1;fill-rule:nonzero;stroke:none;stroke-width:0.5;stroke-linecap:round;stroke-linejoin:round;stroke-miterlimit:4;stroke-dasharray:none;stroke-dashoffset:0;stroke-opacity:1"
         d="m 690.82952,647.31445 c -3.7536,2.8407 -9.99295,5.31398 -15.98828,8.12305 l 0.0352,0.0606 c 2.18866,-0.7997 4.39537,-1.51396 6.56445,-2.39844 2.16908,-0.88448 4.86118,-1.94453 6.43946,-2.9043 1.57828,-0.95977 2.37916,-1.74992 2.90429,-2.77734 0.0176,-0.0344 0.0288,-0.0691 0.0449,-0.10352 z"
         id="path4384" />
      <path
         inkscape:export-ydpi="90"
         inkscape:export-xdpi="90"
         inkscape:connector-curvature="0"
         style="opacity:1;fill:#3f403b;fill-opacity:1;fill-rule:nonzero;stroke:none;stroke-width:0.5;stroke-linecap:round;stroke-linejoin:round;stroke-miterlimit:4;stroke-dasharray:none;stroke-dashoffset:0;stroke-opacity:1"
         d="m 680.39007,632.77148 c 0.14616,3.99574 -2.11533,7.17762 -5.25586,9.4668 0.0103,-0.004 2.5185,-0.97229 3.5293,-1.82812 1.12428,-0.95191 2.21197,-2.13133 2.65234,-3.53711 0.34624,-1.10527 0.54186,-2.52509 -0.12695,-3.47071 -0.19323,-0.27319 -0.48251,-0.47262 -0.79883,-0.63086 z"
         id="path4386" />
      <path
         inkscape:export-ydpi="90"
         inkscape:export-xdpi="90"
         inkscape:connector-curvature="0"
         style="opacity:1;fill:#3f403b;fill-opacity:1;fill-rule:nonzero;stroke:none;stroke-width:0.5;stroke-linecap:round;stroke-linejoin:round;stroke-miterlimit:4;stroke-dasharray:none;stroke-dashoffset:0;stroke-opacity:1"
         d="m 696.26702,613.69922 c 1.09073,8.21284 0.7096,16.19577 -1.94531,24.375 -0.49946,2.78267 -1.00899,5.5562 -1.67578,8.30078 1.16923,-1.80335 2.04451,-3.61971 1.80078,-7.66992 1.79314,-7.28843 5.91634,-15.14283 2.69531,-23.30664 -0.23803,-0.59508 -0.54404,-1.15385 -0.875,-1.69922 z"
         id="path4388" />
      <path
         inkscape:export-ydpi="90"
         inkscape:export-xdpi="90"
         inkscape:connector-curvature="0"
         style="opacity:1;fill:#3f403b;fill-opacity:1;fill-rule:nonzero;stroke:none;stroke-width:0.5;stroke-linecap:round;stroke-linejoin:round;stroke-miterlimit:4;stroke-dasharray:none;stroke-dashoffset:0;stroke-opacity:1"
         d="m 524.26898,608.39648 c 2.1352,6.00885 4.29075,12.01002 6.26758,18.07227 1.88597,5.78365 2.97605,11.82901 5.17773,17.5 1.74389,4.49184 4.38821,8.5804 6.60742,12.85742 1.05465,2.0326 1.29302,4.82714 3.21485,6.07227 2.71466,1.75879 6.33224,1.3291 9.46289,2.14258 4.43153,1.1515 8.65119,3.3791 13.21484,3.75 12.40016,1.00779 24.88618,0.70872 37.32227,0.35742 8.65701,-0.24455 17.24898,-1.60235 25.89257,-2.14258 8.5028,-0.53143 17.02103,-0.77278 25.53516,-1.07227 0.0435,-0.002 0.0873,10e-4 0.13086,0 l -0.9082,-0.71289 c -28.32745,1.0325 -56.46908,4.73907 -84.85157,3.28321 -6.42131,-0.32938 -18.67622,-5.05106 -23.73828,-9.34375 -10.69265,-9.06751 -14.03431,-32.77176 -23.32812,-50.76368 z"
         id="path4390" />
      <path
         inkscape:export-ydpi="90"
         inkscape:export-xdpi="90"
         style="opacity:1;fill:#fff;fill-opacity:1;fill-rule:nonzero;stroke:none;stroke-width:0.5;stroke-linecap:round;stroke-linejoin:round;stroke-miterlimit:4;stroke-dasharray:none;stroke-dashoffset:0;stroke-opacity:1"
         d="m 534.71689,483.52005 c -9.13207,8.87007 -5.56779,24.71109 2.27285,31.18846 18.30725,15.12413 55.1196,22.81309 72.2259,5.05076 4.96669,-5.15716 6.50294,-16.80296 -2.02031,-19.82424 -27.10189,-6.51329 -58.31401,-27.97795 -72.47844,-16.41498 z"
         id="path4392"
         inkscape:connector-curvature="0"
         sodipodi:nodetypes="csscc" />
      <path
         inkscape:export-ydpi="90"
         inkscape:export-xdpi="90"
         inkscape:connector-curvature="0"
         style="opacity:1;fill:#3f403b;fill-opacity:1;fill-rule:nonzero;stroke:none;stroke-width:0.5;stroke-linecap:round;stroke-linejoin:round;stroke-miterlimit:4;stroke-dasharray:none;stroke-dashoffset:0;stroke-opacity:1"
         d="m 546.23773,480.17188 c -4.50852,-0.12923 -8.42302,0.81825 -11.52149,3.34765 -0.78853,0.76592 -1.47544,1.58792 -2.08007,2.44727 -0.58036,5.12417 0.0656,10.21784 1.71484,13.52539 12.47031,25.00914 70.57847,34.50671 74.87695,4.41797 0.1277,-0.89387 0.14278,-1.89105 0.0859,-2.92188 -0.62311,-0.41698 -1.32798,-0.77229 -2.11914,-1.05273 -21.17335,-5.08851 -44.85519,-19.30215 -60.95703,-19.76367 z"
         id="path4394" />
      <path
         inkscape:export-ydpi="90"
         inkscape:export-xdpi="90"
         style="opacity:1;fill:#fff;fill-opacity:1;fill-rule:nonzero;stroke:none;stroke-width:0.5;stroke-linecap:round;stroke-linejoin:round;stroke-miterlimit:4;stroke-dasharray:none;stroke-dashoffset:0;stroke-opacity:1"
         d="m 549.74292,467.10507 c -15.64871,-0.58838 -18.69892,22.17613 -14.14214,31.31473 12.47031,25.00914 70.57907,34.50816 74.87755,4.41942 0.58021,-4.06135 -0.8372,-10.09814 -3.40926,-13.00571 -2.44387,-2.64752 -5.23704,-5.23772 -8.5863,-6.566 -16.54198,-6.56036 -31.41462,-12.09896 -48.73985,-16.16244 z"
         id="path4396"
         inkscape:connector-curvature="0"
         sodipodi:nodetypes="csscsc" />
      <path
         inkscape:export-ydpi="90"
         inkscape:export-xdpi="90"
         inkscape:connector-curvature="0"
         style="opacity:1;fill:#3f403b;fill-opacity:1;fill-rule:nonzero;stroke:none;stroke-width:0.5;stroke-linecap:round;stroke-linejoin:round;stroke-miterlimit:4;stroke-dasharray:none;stroke-dashoffset:0;stroke-opacity:1"
         d="m 549.74359,467.10547 c -4.46027,-0.1677 -7.89496,1.56556 -10.42383,4.33594 0.0204,0.49221 0.0338,0.96321 0.0566,1.47265 -2.31291,33.09125 25.32792,46.04876 53.51953,38.98242 11.63494,-2.27852 13.51034,-9.85384 14.26953,-20.07617 0.16176,-0.44315 0.29746,-0.88844 0.42188,-1.33398 -0.16726,-0.23049 -0.33889,-0.45035 -0.51758,-0.65235 -2.44387,-2.64752 -5.23863,-5.23812 -8.58789,-6.5664 -16.54198,-6.56036 -31.41305,-12.09863 -48.73828,-16.16211 z"
         id="path4398" />
      <path
         inkscape:export-ydpi="90"
         inkscape:export-xdpi="90"
         style="opacity:1;fill:#fff;fill-opacity:1;fill-rule:nonzero;stroke:none;stroke-width:0.5;stroke-linecap:round;stroke-linejoin:round;stroke-miterlimit:4;stroke-dasharray:none;stroke-dashoffset:0;stroke-opacity:1"
         d="m 544.18707,448.29098 c 0,0 -2.49918,6.17141 -3.47425,9.89231 -1.19122,4.54569 -1.01165,8.42856 -0.80095,13.12302 -2.31291,33.09125 25.32853,46.04912 53.52014,38.98278 11.63494,-2.27852 13.50921,-9.85445 14.2684,-20.07678 2.14993,-5.89005 0.85541,-12.0287 0,-17.42513 -0.49903,-5.54123 -1.80837,-10.72032 -3.6618,-15.9099 1.13182,-4.84761 -0.18636,-8.12464 -3.03046,-11.99556 0.98805,-5.69441 -2.80534,-8.76562 -7.82868,-8.83884 -9.76963,-5.37339 -17.24829,-8.62061 -28.41054,-6.06091 -10.64904,-0.29163 -19.48207,9.24731 -20.58186,18.30901 z"
         id="path4400"
         inkscape:connector-curvature="0"
         sodipodi:nodetypes="csccccccccc" />
      <path
         inkscape:export-ydpi="90"
         inkscape:export-xdpi="90"
         style="opacity:1;fill:#3f403b;fill-opacity:1;fill-rule:nonzero;stroke:none;stroke-width:0.5;stroke-linecap:round;stroke-linejoin:round;stroke-miterlimit:4;stroke-dasharray:none;stroke-dashoffset:0;stroke-opacity:1"
         d="m 605.17858,483.6122 c -0.83333,1.60714 -2.27848,3.02469 -2.5,4.82143 -0.33701,2.73353 0.80005,5.46163 0.89285,8.21429 0.0863,2.56084 0.80475,5.39486 -0.35714,7.67857 -0.82091,1.61352 -3.03279,2.22052 -4.82143,2.5 -4.05833,0.63411 -8.22848,0.5249 -12.32143,0.17857 -3.68736,-0.31201 -7.43397,-0.82751 -10.89285,-2.14286 -1.003,-0.38142 -1.63396,-1.61627 -1.78572,-2.67857 -0.40415,-2.82904 0.11907,-5.71429 0.17857,-8.57143 -0.83333,-0.53571 -1.8844,-0.83095 -2.5,-1.60714 -0.81121,-1.02282 -1.07143,-2.38095 -1.60714,-3.57143 0.18989,3.13829 0.47632,4.37456 2.88079,6.07183 -0.41467,1.60095 -1.11095,4.05914 -0.88389,7.32361 0.51816,7.44956 1.48817,6.64995 8.5863,7.70241 5.59861,0.83012 11.26559,0.21227 16.79378,-0.88388 3.42097,-0.67832 7.27921,-1.82614 7.95759,-5.13371 0.8735,-4.25895 -1.36543,-10.33808 -1.34463,-14.45495 0.0138,-2.72126 1.14389,-3.08425 1.72435,-5.44674 z"
         id="path4402"
         inkscape:connector-curvature="0"
         sodipodi:nodetypes="cscsssssssccsssssc" />
      <path
         inkscape:export-ydpi="90"
         inkscape:export-xdpi="90"
         style="opacity:1;fill:#3f403b;fill-opacity:1;fill-rule:nonzero;stroke:none;stroke-width:0.5;stroke-linecap:round;stroke-linejoin:round;stroke-miterlimit:4;stroke-dasharray:none;stroke-dashoffset:0;stroke-opacity:1"
         d="m 551.78572,468.43363 c 0.23809,2.26191 -0.005,4.62803 0.71428,6.78572 0.51204,1.53613 2.34511,2.39244 2.85715,3.92857 0.60351,1.81054 -0.15521,3.87586 0.35714,5.71428 0.52173,1.87209 1.78571,3.45238 2.67857,5.17857 -0.59524,-1.78571 -1.38024,-3.51902 -1.78571,-5.35714 -0.49144,-2.22784 -0.11321,-4.64167 -0.89286,-6.78571 -0.46118,-1.26825 -2.1612,-1.78933 -2.67857,-3.03572 -0.83691,-2.01619 -0.83333,-4.28571 -1.25,-6.42857 z"
         id="path4404"
         inkscape:connector-curvature="0"
         sodipodi:nodetypes="cssscsssc" />
      <path
         inkscape:export-ydpi="90"
         inkscape:export-xdpi="90"
         style="opacity:1;fill:#3f403b;fill-opacity:1;fill-rule:nonzero;stroke:none;stroke-width:0.5;stroke-linecap:round;stroke-linejoin:round;stroke-miterlimit:4;stroke-dasharray:none;stroke-dashoffset:0;stroke-opacity:1"
         d="m 549.82143,489.50506 c -5.23398,-8.16938 -5.39154,-17.2361 -5.53571,-26.60715 -1.3768,9.81872 -0.007,18.4561 5.53571,26.60715 z"
         id="path4406"
         inkscape:connector-curvature="0"
         sodipodi:nodetypes="ccc" />
      <path
         inkscape:export-ydpi="90"
         inkscape:export-xdpi="90"
         style="opacity:0.33300003;fill:#3f403b;fill-opacity:1;fill-rule:nonzero;stroke:none;stroke-width:0.5;stroke-linecap:round;stroke-linejoin:round;stroke-miterlimit:4;stroke-dasharray:none;stroke-dashoffset:0;stroke-opacity:1"
         d="m 549.07757,437.58789 c -2.66044,3.17269 -4.43794,6.97324 -4.89062,10.70313 0,0 -2.49954,6.17167 -3.47461,9.89257 -1.15179,4.39521 -1.01868,8.18517 -0.81836,12.67383 -3.3647,3.30349 -5.27298,8.35879 -5.94336,13.45899 -0.56424,0.62249 -1.0516,1.28281 -1.50586,1.95898 -0.0129,11.32343 3.75603,20.85525 11.61523,29.82227 -2.40205,13.30374 -3.26353,19.07083 11.74414,21.84375 3.51096,7.4739 6.11096,14.76349 14.52149,16.16211 6.07653,1.01049 13.33818,-1.72995 16.79297,-6.94336 3.34259,-5.04409 2.63816,-11.69567 2.27343,-17.80469 1.71936,-3.43872 3.63746,-4.52834 2.77735,-8.45899 1.32382,-3.21499 2.28952,-5.38047 1.76758,-8.96679 0.70507,-4.59692 7.066,-4.21176 9.17382,-8.06836 -2.40859,3.67312 -10.54343,2.7125 -13.59375,-0.0117 -3.14653,-2.81015 -0.84546,-8.41328 -2.39843,-12.375 l 5.05078,-0.63086 c -3.78856,-0.1082 -9.30398,0.92813 -11.49024,-3.41016 4.42419,-0.58989 8.81075,-1.18573 13.25782,-0.3789 -4.42545,-0.88509 -8.6118,-0.93436 -13.25782,-0.125 l -0.63086,-1.76758 c 5.59747,-0.67169 10.53099,-1.09274 16.16211,0 -5.39092,-1.34773 -10.6675,-1.20051 -16.41601,-0.37891 -1.83653,-2.81585 -3.5504,-5.26485 -5.05078,-7.07226 -4.59495,1.02781 -7.28455,1.99933 -9.72266,6.4414 -1.12852,-2.79162 -3.30758,-5.30324 -1.26172,-7.95507 -2.34257,1.17128 -3.87338,1.3613 -4.04101,4.16601 -4.09328,-4.27125 -3.16341,-9.01278 0.3789,-14.52148 2.33663,-2.56629 6.67112,-2.94846 8.83789,-6.1875 -0.60953,-4.19052 -1.51655,-8.59168 0.25391,-13.00391 -4.35192,-8.0343 -10.4222,-12.76951 -18.30859,-3.53711 -1.19706,-1.90121 -1.69413,-3.65493 -1.80079,-5.52539 z m 54.0332,66.27344 c 0.48308,-0.73669 0.74114,-1.65607 0.67579,-2.78906 -0.0163,1.13501 -0.26684,2.04083 -0.67579,2.78906 z"
         id="path4408"
         inkscape:connector-curvature="0"
         sodipodi:nodetypes="ccscccccssccccsccccccccccccccccccccc" />
      <path
         inkscape:export-ydpi="90"
         inkscape:export-xdpi="90"
         style="opacity:1;fill:#3f403b;fill-opacity:1;fill-rule:nonzero;stroke:none;stroke-width:0.5;stroke-linecap:round;stroke-linejoin:round;stroke-miterlimit:4;stroke-dasharray:none;stroke-dashoffset:0;stroke-opacity:1"
         d="m 596.97838,439.65239 c 1.35486,-0.95746 3.14987,-0.61023 3.14589,0.80991 -0.005,1.74159 -0.46021,3.66709 -0.0884,4.93192 0.51018,2.43397 4.16894,5.43478 1.79302,6.05349 -2.49678,0.65019 -5.38642,-2.62776 -6.00669,-5.47235 -0.54028,-2.47774 -0.34297,-5.26355 1.15618,-6.32297 z"
         id="path4410"
         inkscape:connector-curvature="0"
         sodipodi:nodetypes="sscsss" />
      <path
         inkscape:export-ydpi="90"
         inkscape:export-xdpi="90"
         style="opacity:1;fill:#1a1a1a;fill-opacity:1;fill-rule:nonzero;stroke:none;stroke-width:0.5;stroke-linecap:round;stroke-linejoin:round;stroke-miterlimit:4;stroke-dasharray:none;stroke-dashoffset:0;stroke-opacity:1"
         d="m 596.33206,440.37325 c -0.83884,1.45737 -1.07672,3.96089 -0.51035,5.60136 0.7918,2.2934 3.71239,5.57721 5.89814,5.53969 0.78226,-1.40876 0.48277,-3.98373 -0.0676,-6.03436 -1.04472,-3.89236 -3.40442,-5.06712 -5.32017,-5.10669 z"
         id="path4412"
         inkscape:connector-curvature="0"
         sodipodi:nodetypes="cscsc" />
      <ellipse
         inkscape:export-ydpi="90"
         inkscape:export-xdpi="90"
         style="opacity:1;fill:#5f615c;fill-opacity:1;fill-rule:nonzero;stroke:none;stroke-width:0.5;stroke-linecap:round;stroke-linejoin:round;stroke-miterlimit:4;stroke-dasharray:none;stroke-dashoffset:0;stroke-opacity:1"
         id="ellipse4414"
         cx="598.26178"
         cy="444.88171"
         rx="1.5467961"
         ry="1.0732871" />
      <path
         inkscape:export-ydpi="90"
         inkscape:export-xdpi="90"
         style="opacity:1;fill:#1a1a1a;fill-opacity:1;fill-rule:nonzero;stroke:none;stroke-width:0.5;stroke-linecap:round;stroke-linejoin:round;stroke-miterlimit:4;stroke-dasharray:none;stroke-dashoffset:0;stroke-opacity:1"
         d="m 552.67858,445.30863 c 6.61225,-5.88777 11.4179,-3.96335 13.21428,3.92857 -6.91072,6.79486 -12.93385,6.72829 -13.21428,-3.92857 z"
         id="path4416"
         inkscape:connector-curvature="0"
         sodipodi:nodetypes="ccc" />
      <ellipse
         inkscape:export-ydpi="90"
         inkscape:export-xdpi="90"
         style="opacity:1;fill:#5f615c;fill-opacity:1;fill-rule:nonzero;stroke:none;stroke-width:0.5;stroke-linecap:round;stroke-linejoin:round;stroke-miterlimit:4;stroke-dasharray:none;stroke-dashoffset:0;stroke-opacity:1"
         id="ellipse4418"
         cx="562.54462"
         cy="444.99612"
         rx="1.0267857"
         ry="1.2053572" />
      <ellipse
         inkscape:export-ydpi="90"
         inkscape:export-xdpi="90"
         style="opacity:1;fill:#31302b;fill-opacity:1;fill-rule:nonzero;stroke:none;stroke-width:0.5;stroke-linecap:round;stroke-linejoin:round;stroke-miterlimit:4;stroke-dasharray:none;stroke-dashoffset:0;stroke-opacity:1"
         id="ellipse4420"
         cx="560.13391"
         cy="448.70148"
         rx="2.6339285"
         ry="1.0714285" />
    </g>
  </g>
</svg>
